<svg id="Layer_1" data-name="Layer 1" xmlns="http://www.w3.org/2000/svg" viewBox="0 0 1680.09 1257.59"><defs><style>.cls-1{fill:#febc11;}.cls-2,.cls-3{fill:#003660;}.cls-2,.cls-3,.cls-5{stroke:#fff;stroke-miterlimit:10;}.cls-2{stroke-width:4px;}.cls-3{stroke-width:6px;}.cls-4,.cls-5{fill:#fff;}.cls-6{fill:#7bacdc;}</style></defs><path class="cls-1" d="M289.88,1136.56c-6.31-31.83-81.1-445.73,215.35-733.11,28.84-28,224.95-210.76,520.47-214.15,190.67-2.2,335.54,68.73,415.93,119.05,28.26,17.69,48.69,32.81,55.75,38.17,205.91,156.23,265.43,381.73,281.08,444.6,16.8,67.47,35.44,178.32,17.52,317.26" transform="translate(-194.9 -189.25)"/><path class="cls-2" d="M999.68,652.34c46-51.5,67.31-80.45,78.25-97.57,4.22-6.6,11.76-15.93,26.88-34.55,16.42-20.24,21.85-25.38,28.81-25.29,6.36.08,10.54,4.5,26.86,22.73,11.18,12.49,17.1,18.43,25.6,28.79,14.38,17.54,17.89,22.91,22.48,27.23a50.21,50.21,0,0,0,4,3.34c9.2,7.36,40.29,39.81,112.4,119.81q-54.48,98.92-109,197.83" transform="translate(-194.9 -189.25)"/><path class="cls-3" d="M1140.09,815.22l87.3-81.61,50.55-3.26c27.19-37.61,47.93-66.27,60-83.37-.73,1,5.7-7.15,18.59-23.55,13.08-16.65,15.78-20.24,20.45-20.45s11.73,8,26,24.17c1.91,2.14,4.64,5.29,7.91,9.33,5.12,6.36,8.6,11.28,9.3,12.27,10.29,14.42,52,62.14,55.6,66,12.12,13.06,24.82,32.62,52.34,70.2,86.29,117.85,163.13,233.58,231.61,345.46l-260.94,76.3" transform="translate(-194.9 -189.25)"/><path class="cls-3" d="M665,852.89C768.72,726.51,803.2,686.16,814.8,673.61c4-4.38,17.14-18.73,32.85-38.5,3.49-4.38,7.12-9.15,11.18-14.72.69-.95,10.77-14.79,25.3-32.25,19.46-23.39,26-28.1,30.39-28.93a10.48,10.48,0,0,1,1.86-.16c7.12-.14,13.14,5.18,27.84,23.85,3.84,4.87,5.76,7.31,7.06,9.14,13.4,18.9,36,45.63,81.14,99.07l2.9,3.42,493.41,512.55-541.8-7.1" transform="translate(-194.9 -189.25)"/><path class="cls-3" d="M352.67,1091.49,471.52,932.17l41.32-6c29.2-25.2,47.41-43.15,59-55.41.87-.92,8.71-7.79,27.92-25.22C615,831.66,618.93,828,625.42,827.67c3.25-.17,7.15.49,30.72,19.63,14.57,11.83,19.92,16.89,34.24,27.92,5.1,3.93,10,7.33,14.43,10.25a233.91,233.91,0,0,0,23.65,13.63c.57.28,1,.51,1.36.66l362.52,304.43" transform="translate(-194.9 -189.25)"/><path class="cls-4" d="M860,723.52,894.7,681l31.41,62.57q4.68-36.33,9.35-72.67l74.71,62.82q-3.36-25.26-6.74-50.53l36.78,17.13c-42.42-50.16-55-65.05-57.13-67.59-.39-.47-3-3.61-6.53-7.76l-1.6-1.89-.09-.1v0l-1-1.13c-6.24-7.35-14.1-18.3-14.1-18.3-17.56-22.16-30.68-38.13-32.24-39.52a27.29,27.29,0,0,0-2.63-2.06c-.68-.47-1.35-.76-1.88-1.18a9,9,0,0,0-2.56-1.44,10.18,10.18,0,0,0-6-.12,13.41,13.41,0,0,0-5.39,2.58c-4,3.82-7.29,7.06-9.82,9.53-3,2.94-4.46,4.41-6.25,6.35-3,3.23-5.08,5.83-6,7-38.34,47.72-44.81,56.17-44.81,56.17a718.32,718.32,0,0,1-47.52,55.75q1.26,21.36,2.5,42.71L847,679.91Q853.47,701.71,860,723.52Z" transform="translate(-194.9 -189.25)"/><path class="cls-5" d="M1132.36,643.82l20.89-37.54,55.7,42q-4.58-22.37-9.13-44.74l65.89,29.54q-34.28-38.37-68.54-76.73c-13.93-15.6-28.36-30.81-41.32-47.23A67.87,67.87,0,0,0,1141,495.36c-2.21-1.51-3.31-2.26-4.08-2.47-12.63-3.43-31.14,25-34.64,30.36l-.24.38c-13.8,21.26-34.9,49.7-69.09,90.35l18.74-4.31q.81,9.92,1.63,19.83l25-19.68,8,34q14.42-18.76,28.82-37.55Q1123.76,625,1132.36,643.82Z" transform="translate(-194.9 -189.25)"/><path class="cls-4" d="M511,928l-39.5,4.18Q457.14,951.6,442.74,971L478.18,954l11.28,31.48,24.08-39.35q7.94,12.31,15.86,24.63,15.12-19.23,30.23-38.45-.06,20.73-.13,41.47l27.8-40.84c1.87,1.86,4.49,4.57,7.47,8,4.16,4.76,6.94,8.62,8.84,11.08,7.29,9.39,13.89,18.58,19.87,27.44q10.46-18.76,20.89-37.54l55.7,42q-4.56-22.36-9.13-44.74l54.78,32-30-51.37,65.71,23.36q-11.13-9.52-22.76-19.14-7.9-6.51-15.73-12.81c-1.8-1.47-4.47-3.7-7.65-6.53-4.36-3.89-4-3.9-5.44-4.83-3.52-2.31-5.43-2.18-11.44-5.44-1.08-.59-1.82-1-2.85-1.63a148.84,148.84,0,0,1-15.78-10.62c-48.54-37.82-65.85-51.15-66.54-51.46l-1.17-.54-4-1.59a8.79,8.79,0,0,0-2.33-.78,6.41,6.41,0,0,0-4,1c-8.07,4.64-19,15.44-19,15.44-4.75,4.72-5.57,4-14.31,11a262.33,262.33,0,0,0-27.07,25.24C552.05,890.17,536.82,905.16,511,928Z" transform="translate(-194.9 -189.25)"/><path class="cls-5" d="M1323.45,769.88l40.5-39.75,19.87,27.45q10.46-18.76,20.89-37.54l47,43.28,1.47-35.65,26.23,28.58q-2.81-13.26-5.6-26.52L1499.4,746c-8.6-12-18.09-24.33-28.55-36.91q-9.13-11-18.17-20.93c-10-10.94-20-22.88-29.82-35.91-1.94-2.57-3.82-5.14-5.67-7.7a72.87,72.87,0,0,0-4.34-5.92c-1.35-1.63-2.42-2.76-3-3.33-4.62-4.9-6-7.12-14.37-16.62-1.4-1.59-2.75-3.05-5.45-6,0,0-1.75-1.9-5.87-5.83A13.53,13.53,0,0,0,1377,603c-4.62-.88-13.47,11-22.13,22.58-6.8,9.08-9.33,12.42-13,17-3.26,4.07-3.8,4.6-6.25,7.74-5.5,7-8.78,12-12.16,17-.61.89-5.57,7.41-15,20.78-4.59,6.53-11.18,15.79-19.5,27q-6.92,7.35-13.85,14.68a101.22,101.22,0,0,0-41.71,4.87,97.79,97.79,0,0,0-13.07,5.57q-18.52,19.32-37.07,38.62l43-25.2q5.16,8.67,10.34,17.34l21.7-28,4.89,8.51c3.12,5.45,7.62,13.28,13.09,22.82l28.67-45.56Q1314.19,749.29,1323.45,769.88Z" transform="translate(-194.9 -189.25)"/><path class="cls-4" d="M565.64,495.59a668.52,668.52,0,0,0-46.59,55.95l20.16,15.13q19.34-26,40.64-49.29l24.44,22.5Q584.13,562,565.77,586.6l47.36,35.54q-15.07,20.24-28.65,42.36L455.9,585.71a711.32,711.32,0,0,1,85.51-112.86Z" transform="translate(-194.9 -189.25)"/><path class="cls-4" d="M663.36,369.17l45.45,68.39q3.66,5.49,8,10.89A31.08,31.08,0,0,0,727,456.74a24.4,24.4,0,0,0,13.45,2.2c5.13-.46,11.17-2.83,18.28-7s12.09-8.18,14.91-12.36a25.16,25.16,0,0,0,4.63-12.73,30.3,30.3,0,0,0-2.14-13q-2.57-6.45-5.54-12.35Q752,365,733.41,328.38,759.78,315,787,304.1q16.46,40.53,32.9,81.06c8.8,21.81,8.86,40.15,1.46,55.24s-22.53,28.11-45.3,41.32-41.79,20.24-59,19.51-33.3-9.58-48-27.94L614.51,404.9Q638.29,385.84,663.36,369.17Z" transform="translate(-194.9 -189.25)"/><path class="cls-4" d="M1017.44,287.62q-33,1.54-65.78,6.31,1.85,12.46,3.7,24.93,29.73-4.33,59.73-5.89.87,16.57,1.75,33.16-28.4,1.47-56.61,5.58L964,377.43q28.56-4.15,57.39-5.5.78,16.59,1.57,33.17a551.55,551.55,0,0,0-99.1,13.66q-17.28-73.42-34.58-146.85a705,705,0,0,1,126.55-17.45Q1016.65,271,1017.44,287.62Z" transform="translate(-194.9 -189.25)"/><path class="cls-4" d="M1244.94,440.53a543.15,543.15,0,0,0-54.52-17.59,576,576,0,0,0-32.14-66.58q-5.28,28.53-10.54,57.05-22.53-4.1-45.31-6.31,7.42-75,14.86-150.08A704.22,704.22,0,0,1,1207,271.64c12.24,2.82,22.55,6.8,30.86,11.69s14.65,10.36,19,16.23a41.14,41.14,0,0,1,8,18.22,37.28,37.28,0,0,1-1.73,18.44c-3.81,10.84-10.5,18.34-19.77,22.82s-21,5.88-35.21,4.66A555.48,555.48,0,0,1,1244.94,440.53Zm-82-109.16q4.9.9,9.79,1.87c10.22,2,18.36,2.25,24.59.44s10.11-5.56,11.6-11.37-.17-11-5.13-15.47-12.88-7.94-23.71-10.08q-5.19-1-10.38-2Q1166.27,313.08,1162.9,331.37Z" transform="translate(-194.9 -189.25)"/><path class="cls-4" d="M1432.16,408.15l-68.09,96.06q-19.29-13.69-39.51-25.52,29.78-50.79,59.57-101.58-20.18-11.79-41-22.06l14.76-29.78A681.2,681.2,0,0,1,1491,411.39q-10.54,12.84-21.11,25.67Q1451.44,421.84,1432.16,408.15Z" transform="translate(-194.9 -189.25)"/><path class="cls-4" d="M1613.3,603.06a685.85,685.85,0,0,0-41.82-60.73l-19.89,15.48a661.77,661.77,0,0,1,38.12,55l-28.2,17.53a627.19,627.19,0,0,0-36.13-52.13l-20.53,16a598.41,598.41,0,0,1,36.49,53L1513,664.5a556.67,556.67,0,0,0-66.45-87.82l110.17-103.12a710.59,710.59,0,0,1,84.86,112.15Z" transform="translate(-194.9 -189.25)"/><path class="cls-6" d="M194.9,1238.82c101.32-141.08,201.21-178.59,251.54-190.88,11.71-2.86,21.88-4.62,28.19-5.72,121.46-21,220,9.3,274.42,25.18,108.11,31.52,247.16,65.94,420.25,108.5,0,0,97.06,18.34,196.63,16.71,28.1-.46,74.53-1.39,134.68-11.71,80.73-13.86,140.12-36.6,161.29-45.12C1751,1100,1821.69,1051.4,1875,1005.56c-26.46,43.81-76.38,113.66-161,172.84-19.77,13.83-74.41,50.13-156.27,76.46-42.23,13.58-153.55,44.78-376.73,13.86-85.7-11.87-85.28-18.68-285.83-64.86-314.51-72.42-372.22-72.24-414.76-68.08C413.67,1142.32,312.9,1163.89,194.9,1238.82Z" transform="translate(-194.9 -189.25)"/><path class="cls-6" d="M801.44,1468.18" transform="translate(-194.9 -189.25)"/><path class="cls-6" d="M276.66,1351.12" transform="translate(-194.9 -189.25)"/><path class="cls-6" d="M184.16,370" transform="translate(-194.9 -189.25)"/><path class="cls-6" d="M292.41,1351.19" transform="translate(-194.9 -189.25)"/><path class="cls-6" d="M313.15,1398.9" transform="translate(-194.9 -189.25)"/><path class="cls-6" d="M201,1338c103-100.68,198.09-122.16,240.74-128.15,38.42-5.39,77.14-4.21,93.92-3.71,23.87.72,66.41,3.27,196.78,29.59,49.74,10,86.44,18.33,89.26,19,181.35,41.08,226.61,62.62,342.9,83.1,0,0,79.82,14.11,159.07,16.36,14.5.41,27,.43,37.56.35,46.17-.34,89.33-5.26,89.33-5.26,14.07-1.59,29.21-3.68,45.35-6.45,11.22-1.92,92.56-16.2,161.29-45.11,102.34-43,177.79-119,209-153.07-21,46.09-66.54,129-157,195.69-21.08,15.54-72,49.36-156.27,76.46-137.93,44.36-262.63,31.17-376.73,13.86-382.4-58-464.18-136.62-700.59-132.94A1079.89,1079.89,0,0,0,201,1338Z" transform="translate(-194.9 -189.25)"/><path class="cls-6" d="M1092,1471.72" transform="translate(-194.9 -189.25)"/><path class="cls-6" d="M291.18,1382.33" transform="translate(-194.9 -189.25)"/><path class="cls-6" d="M1869.83,1272.51" transform="translate(-194.9 -189.25)"/><path class="cls-6" d="M816.38,1439.11" transform="translate(-194.9 -189.25)"/><path class="cls-6" d="M719,1402" transform="translate(-194.9 -189.25)"/></svg>